<svg width="64" height="48" viewBox="0 0 64 48" fill="none" xmlns="http://www.w3.org/2000/svg">
<mask id="mask0_4086_49707" style="mask-type:alpha" maskUnits="userSpaceOnUse" x="0" y="0" width="64" height="48">
<rect width="64" height="48" fill="white"/>
</mask>
<g mask="url(#mask0_4086_49707)">
<path fill-rule="evenodd" clip-rule="evenodd" d="M0 0H64V48H0V0Z" fill="#F7FCFF"/>
<path fill-rule="evenodd" clip-rule="evenodd" d="M0 29.3333V33.3333H64V29.3333H0Z" fill="#E31D1C"/>
<path fill-rule="evenodd" clip-rule="evenodd" d="M0 36.6667V40.6667H64V36.6667H0Z" fill="#E31D1C"/>
<path fill-rule="evenodd" clip-rule="evenodd" d="M0 14.6667V18.6667H64V14.6667H0Z" fill="#E31D1C"/>
<path fill-rule="evenodd" clip-rule="evenodd" d="M0 44V48H64V44H0Z" fill="#E31D1C"/>
<path fill-rule="evenodd" clip-rule="evenodd" d="M0 22V26H64V22H0Z" fill="#E31D1C"/>
<path fill-rule="evenodd" clip-rule="evenodd" d="M0 0V4H64V0H0Z" fill="#E31D1C"/>
<path fill-rule="evenodd" clip-rule="evenodd" d="M0 7.33325V11.3333H64V7.33325H0Z" fill="#E31D1C"/>
<rect width="40" height="26" fill="#2E42A5"/>
<path fill-rule="evenodd" clip-rule="evenodd" d="M3.44442 5.87741L1.99266 6.89519L2.48279 5.08397L1.19336 3.93614H2.87753L3.44239 2.45801L4.10473 3.93614H5.54045L4.41237 5.08397L4.8491 6.89519L3.44442 5.87741ZM11.4444 5.87741L9.99266 6.89519L10.4828 5.08397L9.19336 3.93614H10.8775L11.4424 2.45801L12.1047 3.93614H13.5404L12.4124 5.08397L12.8491 6.89519L11.4444 5.87741ZM17.9927 6.89519L19.4444 5.87741L20.8491 6.89519L20.4124 5.08397L21.5404 3.93614H20.1047L19.4424 2.45801L18.8775 3.93614H17.1934L18.4828 5.08397L17.9927 6.89519ZM27.4444 5.87741L25.9927 6.89519L26.4828 5.08397L25.1934 3.93614H26.8775L27.4424 2.45801L28.1047 3.93614H29.5404L28.4124 5.08397L28.8491 6.89519L27.4444 5.87741ZM1.99266 14.8952L3.44442 13.8774L4.8491 14.8952L4.41237 13.084L5.54045 11.9361H4.10473L3.44239 10.458L2.87753 11.9361H1.19336L2.48279 13.084L1.99266 14.8952ZM11.4444 13.8774L9.99266 14.8952L10.4828 13.084L9.19336 11.9361H10.8775L11.4424 10.458L12.1047 11.9361H13.5404L12.4124 13.084L12.8491 14.8952L11.4444 13.8774ZM17.9927 14.8952L19.4444 13.8774L20.8491 14.8952L20.4124 13.084L21.5404 11.9361H20.1047L19.4424 10.458L18.8775 11.9361H17.1934L18.4828 13.084L17.9927 14.8952ZM27.4444 13.8774L25.9927 14.8952L26.4828 13.084L25.1934 11.9361H26.8775L27.4424 10.458L28.1047 11.9361H29.5404L28.4124 13.084L28.8491 14.8952L27.4444 13.8774ZM1.99266 22.8952L3.44442 21.8774L4.8491 22.8952L4.41237 21.084L5.54045 19.9361H4.10473L3.44239 18.458L2.87753 19.9361H1.19336L2.48279 21.084L1.99266 22.8952ZM11.4444 21.8774L9.99266 22.8952L10.4828 21.084L9.19336 19.9361H10.8775L11.4424 18.458L12.1047 19.9361H13.5404L12.4124 21.084L12.8491 22.8952L11.4444 21.8774ZM17.9927 22.8952L19.4444 21.8774L20.8491 22.8952L20.4124 21.084L21.5404 19.9361H20.1047L19.4424 18.458L18.8775 19.9361H17.1934L18.4828 21.084L17.9927 22.8952ZM27.4444 21.8774L25.9927 22.8952L26.4828 21.084L25.1934 19.9361H26.8775L27.4424 18.458L28.1047 19.9361H29.5404L28.4124 21.084L28.8491 22.8952L27.4444 21.8774ZM33.9927 6.89519L35.4444 5.87741L36.8491 6.89519L36.4124 5.08397L37.5404 3.93614H36.1047L35.4424 2.45801L34.8775 3.93614H33.1934L34.4828 5.08397L33.9927 6.89519ZM35.4444 13.8774L33.9927 14.8952L34.4828 13.084L33.1934 11.9361H34.8775L35.4424 10.458L36.1047 11.9361H37.5404L36.4124 13.084L36.8491 14.8952L35.4444 13.8774ZM33.9927 22.8952L35.4444 21.8774L36.8491 22.8952L36.4124 21.084L37.5404 19.9361H36.1047L35.4424 18.458L34.8775 19.9361H33.1934L34.4828 21.084L33.9927 22.8952ZM7.44442 9.87741L5.99266 10.8952L6.48279 9.08397L5.19336 7.93614H6.87753L7.44239 6.45801L8.10473 7.93614H9.54045L8.41237 9.08397L8.8491 10.8952L7.44442 9.87741ZM13.9927 10.8952L15.4444 9.87741L16.8491 10.8952L16.4124 9.08397L17.5404 7.93614H16.1047L15.4424 6.45801L14.8775 7.93614H13.1934L14.4828 9.08397L13.9927 10.8952ZM23.4444 9.87741L21.9927 10.8952L22.4828 9.08397L21.1934 7.93614H22.8775L23.4424 6.45801L24.1047 7.93614H25.5404L24.4124 9.08397L24.8491 10.8952L23.4444 9.87741ZM5.99266 18.8952L7.44442 17.8774L8.8491 18.8952L8.41237 17.084L9.54045 15.9361H8.10473L7.44239 14.458L6.87753 15.9361H5.19336L6.48279 17.084L5.99266 18.8952ZM15.4444 17.8774L13.9927 18.8952L14.4828 17.084L13.1934 15.9361H14.8775L15.4424 14.458L16.1047 15.9361H17.5404L16.4124 17.084L16.8491 18.8952L15.4444 17.8774ZM21.9927 18.8952L23.4444 17.8774L24.8491 18.8952L24.4124 17.084L25.5404 15.9361H24.1047L23.4424 14.458L22.8775 15.9361H21.1934L22.4828 17.084L21.9927 18.8952ZM31.4444 9.87741L29.9927 10.8952L30.4828 9.08397L29.1934 7.93614H30.8775L31.4424 6.45801L32.1047 7.93614H33.5404L32.4124 9.08397L32.8491 10.8952L31.4444 9.87741ZM29.9927 18.8952L31.4444 17.8774L32.8491 18.8952L32.4124 17.084L33.5404 15.9361H32.1047L31.4424 14.458L30.8775 15.9361H29.1934L30.4828 17.084L29.9927 18.8952Z" fill="#F7FCFF"/>
</g>
</svg>
