<svg width="387" height="48" viewBox="0 0 387 48" fill="none" xmlns="http://www.w3.org/2000/svg">
<path d="M113.422 19.2H85.1403V9.6H120.744V0H85.0751C82.5979 0 80.222 1.0044 78.4702 2.79225C76.7189 4.58009 75.7347 7.00495 75.7347 9.53335V19.2666C75.7347 21.795 76.7189 24.2199 78.4702 26.0077C80.222 27.7956 82.5979 28.8 85.0751 28.8H113.357V38.4H76.4073V48H113.422C115.899 48 118.275 46.9956 120.027 45.2077C121.778 43.4199 122.763 40.995 122.763 38.4666V28.7334C122.763 26.205 121.778 23.7801 120.027 21.9923C118.275 20.2044 115.899 19.2 113.422 19.2Z" fill="black"/>
<path d="M168.19 0H139.804C138.577 -3.06463e-07 137.363 0.246635 136.23 0.72581C135.098 1.20499 134.068 1.90732 133.201 2.79265C132.335 3.67799 131.647 4.72899 131.179 5.8856C130.71 7.0422 130.469 8.2817 130.47 9.53335V38.4666C130.469 39.7183 130.71 40.9578 131.179 42.1144C131.647 43.271 132.335 44.322 133.201 45.2074C134.068 46.0927 135.098 46.795 136.23 47.2742C137.363 47.7534 138.577 48 139.804 48H168.19C170.667 48 173.043 46.9956 174.794 45.2077C176.546 43.4199 177.53 40.995 177.53 38.4666V9.53335C177.53 7.00495 176.546 4.58009 174.794 2.79225C173.043 1.0044 170.667 0 168.19 0ZM168.125 38.4H139.908V9.6H168.125V38.4Z" fill="black"/>
<path d="M267.536 2.33447e-06H239.855C237.378 2.33447e-06 235.002 1.0044 233.251 2.79225C231.499 4.5801 230.515 7.00495 230.515 9.53335V48H239.921V32.2267H267.471V48H276.877V9.53335C276.878 8.28115 276.637 7.0411 276.167 5.88405C275.698 4.72701 275.01 3.67572 274.143 2.79029C273.276 1.90487 272.245 1.20269 271.112 0.7239C269.978 0.245115 268.763 -0.000874235 267.536 2.33447e-06ZM267.471 22.6266H239.921V9.6H267.471V22.6266Z" fill="black"/>
<path d="M377.66 2.09809e-05H349.985C348.757 -0.00260899 347.54 0.242037 346.405 0.719955C345.269 1.19787 344.238 1.89968 343.368 2.78519C342.499 3.6707 341.809 4.72254 341.338 5.8805C340.868 7.0384 340.625 8.27975 340.625 9.53335V48H350.031V32.2267H377.594V48H387V9.53335C387 7.00495 386.016 4.58011 384.265 2.79227C382.513 1.00442 380.137 2.09809e-05 377.66 2.09809e-05ZM377.594 22.6267H350.05V9.6H377.594V22.6267Z" fill="black"/>
<path d="M322.866 38.4H319.104L305.622 4C305.161 2.81972 304.364 1.80768 303.334 1.09462C302.303 0.381577 301.087 0.000282466 299.842 0H291.468C289.818 0 288.234 0.669365 287.067 1.86085C285.9 3.05233 285.244 4.66833 285.244 6.35335V48H294.649V9.6H298.411L311.886 44C312.345 45.1803 313.141 46.1926 314.171 46.9058C315.2 47.619 316.416 48.0002 317.66 48H326.034C327.685 48 329.268 47.3306 330.435 46.1391C331.603 44.9476 332.258 43.3317 332.258 41.6466V0H322.853L322.866 38.4Z" fill="black"/>
<path d="M195.27 0H185.865V38.4666C185.865 40.995 186.849 43.4199 188.6 45.2077C190.352 46.9956 192.728 48 195.205 48H223.487V38.4H195.27V0Z" fill="black"/>
<path fill-rule="evenodd" clip-rule="evenodd" d="M8.97483 36.6C9.14183 36.4154 9.34361 36.2671 9.56807 36.164C9.79253 36.061 10.0351 36.0052 10.2812 36H51.3258C51.4997 36.0025 51.6687 36.0561 51.8132 36.1545C51.9578 36.2528 52.0714 36.3918 52.1405 36.5544C52.2096 36.7171 52.2311 36.8966 52.2022 37.0715C52.1738 37.2463 52.0964 37.4091 51.9793 37.54L43.279 47.4C43.112 47.5846 42.9102 47.7329 42.6858 47.836C42.4613 47.9391 42.2188 47.9948 41.9727 48H0.901735C0.728075 47.9975 0.558814 47.9439 0.414316 47.8455C0.269823 47.7472 0.156246 47.6082 0.0872477 47.4456C0.0182491 47.2829 -0.00323184 47.1034 0.0253865 46.9285C0.0540049 46.7537 0.131508 46.5909 0.248573 46.46L8.97483 36.6ZM52.0185 28.4266C52.1356 28.5576 52.213 28.7203 52.2414 28.8951C52.2703 29.07 52.2487 29.2496 52.1797 29.4123C52.1106 29.575 51.997 29.7138 51.8524 29.8121C51.7079 29.9105 51.5389 29.9642 51.365 29.9667L10.3073 30C10.0612 29.9948 9.81864 29.9391 9.59418 29.836C9.36972 29.7329 9.16794 29.5846 9.00099 29.4L0.235508 19.5734C0.118448 19.4424 0.0409449 19.2797 0.0123216 19.1049C-0.0162967 18.93 0.00518423 18.7504 0.0741828 18.5877C0.143181 18.425 0.256759 18.2862 0.401256 18.1879C0.545749 18.0895 0.71501 18.0358 0.888675 18.0333L41.9466 18C42.1927 18.0052 42.4352 18.0609 42.6597 18.164C42.8841 18.2671 43.0859 18.4154 43.2529 18.6L52.0185 28.4266ZM8.97483 0.6C9.14183 0.415409 9.34361 0.267122 9.56807 0.164023C9.79253 0.0609245 10.0351 0.0051357 10.2812 0L51.3523 0.0333333C51.5257 0.0358297 51.6952 0.0894835 51.8397 0.187841C51.9842 0.286197 52.0974 0.425069 52.1664 0.58775C52.2355 0.750435 52.2571 0.93 52.2287 1.10485C52.1998 1.2797 52.1224 1.44238 52.0053 1.57334L43.279 11.4C43.112 11.5846 42.9102 11.7329 42.6858 11.836C42.4613 11.9391 42.2188 11.9948 41.9727 12H0.901735C0.728075 11.9975 0.558814 11.9438 0.414316 11.8455C0.269823 11.7471 0.156246 11.6082 0.0872477 11.4456C0.0182491 11.2829 -0.00323184 11.1034 0.0253865 10.9285C0.0540049 10.7537 0.131508 10.591 0.248573 10.46L8.97483 0.6Z" fill="url(#paint0_linear_746_7939)"/>
<defs>
<linearGradient id="paint0_linear_746_7939" x1="1.58756" y1="49.0467" x2="51.6706" y2="-0.0217963" gradientUnits="userSpaceOnUse">
<stop stop-color="#9945FF"/>
<stop offset="0.14" stop-color="#8A53F4"/>
<stop offset="0.42" stop-color="#6377D6"/>
<stop offset="0.79" stop-color="#24B0A7"/>
<stop offset="0.99" stop-color="#00D18C"/>
<stop offset="1" stop-color="#00D18C"/>
</linearGradient>
</defs>
</svg>
