<svg width="147" height="48" viewBox="0 0 147 48" fill="none" xmlns="http://www.w3.org/2000/svg">
<path d="M119.807 21.4381C119.28 21.4408 118.776 21.6504 118.402 22.0216C118.028 22.3929 117.815 22.8961 117.809 23.4228C117.809 24.2423 118.223 24.8817 119.05 25.3411C119.957 25.5876 120.684 25.4267 121.232 24.866C121.422 24.6819 121.573 24.4606 121.675 24.216C121.776 23.9713 121.827 23.7084 121.822 23.4435C121.828 23.1802 121.779 22.9185 121.677 22.6755C121.575 22.4325 121.424 22.2136 121.232 22.0328C121.048 21.8418 120.826 21.6905 120.581 21.5882C120.336 21.4859 120.073 21.4349 119.807 21.4381V21.4381Z" fill="#DE5959"/>
<path d="M87.652 6.22112H86.1552C85.8468 6.22385 85.552 6.34846 85.3352 6.56776C85.1184 6.78705 84.9971 7.08321 84.9979 7.39159V8.22257C83.4056 6.57831 81.6086 5.75274 79.6069 5.74585C77.2805 5.74585 75.3467 6.60193 73.8085 8.33179C72.2704 10.0617 71.4954 12.196 71.4954 14.7819C71.4954 17.4092 72.2571 19.5995 73.8085 21.356C75.3615 23.0696 77.3203 23.9419 79.7029 23.9419C81.5953 23.9419 83.3505 23.1656 84.9979 21.6276V23.2748C84.9965 23.4652 85.0328 23.6539 85.1046 23.8302C85.1765 24.0066 85.2824 24.1669 85.4165 24.3022C85.5505 24.4374 85.7099 24.5448 85.8856 24.6183C86.0612 24.6917 86.2497 24.7297 86.4401 24.7301H88.9865V7.55542C88.9857 7.20178 88.8449 6.86285 88.5948 6.61279C88.3447 6.36273 88.0057 6.2219 87.652 6.22112ZM83.8819 18.8645C82.9696 19.8726 81.7857 20.3759 80.3155 20.3759C79.6623 20.3919 79.0141 20.2592 78.4198 19.9879C77.8255 19.7166 77.3006 19.3138 76.8849 18.8099C75.9992 17.7767 75.5563 16.4291 75.5563 14.7819C75.5563 13.2306 76.0183 11.9377 76.9173 10.8897C77.3394 10.3946 77.8657 9.99885 78.4584 9.73069C79.0512 9.46253 79.6959 9.32858 80.3465 9.33842C81.8035 9.33842 82.9741 9.84174 83.8893 10.8764C84.8045 11.9111 85.2503 13.2572 85.2503 14.8616C85.2503 16.466 84.7927 17.8165 83.8819 18.8645Z" fill="#DE5959"/>
<path d="M71.4953 7.43338C71.4947 7.2751 71.4629 7.1185 71.4016 6.97256C71.3403 6.82663 71.2508 6.69425 71.1382 6.58301C71.0255 6.47178 70.8921 6.38389 70.7454 6.3244C70.5987 6.26491 70.4417 6.23499 70.2834 6.23635H68.7186C68.5603 6.23499 68.4033 6.26491 68.2567 6.3244C68.11 6.38389 67.9765 6.47178 67.8639 6.58301C67.7512 6.69425 67.6617 6.82663 67.6004 6.97256C67.5391 7.1185 67.5073 7.2751 67.5067 7.43338V8.17138C66.8402 7.3946 66.0103 6.77468 65.0763 6.35596C64.1423 5.93724 63.1273 5.73007 62.1039 5.74927C59.6254 5.74927 57.6385 6.688 56.1284 8.5389C54.726 10.2939 54.0175 12.4311 54.0175 14.9359C54.0175 17.5203 54.7806 19.6709 56.2908 21.386C57.8009 23.1011 59.7081 23.9321 62.0478 23.9321C64.1027 23.9321 65.9233 23.1286 67.5097 21.5218V23.9114C67.5097 27.4907 66.0674 29.2737 63.155 29.2737C61.5754 29.2737 60.3635 28.7438 59.5472 27.6678C59.317 27.3584 59.1381 27.0141 59.0172 26.6479C58.9226 26.3705 58.7437 26.1295 58.5056 25.9586C58.2674 25.7876 57.9818 25.6953 57.6887 25.6944H56.1815C56.0014 25.6945 55.8236 25.7359 55.6619 25.8153C55.5002 25.8947 55.3588 26.01 55.2485 26.1525C55.1383 26.2949 55.062 26.4607 55.0257 26.6371C54.9894 26.8136 54.9939 26.996 55.039 27.1704C55.4153 28.6659 56.2536 30.0046 57.4348 30.9962C58.9183 32.2345 60.8108 32.8471 63.1107 32.8471C65.8327 32.8471 67.9702 31.9482 69.535 30.1667C70.3651 29.2102 70.9368 28.0573 71.1957 26.8176C71.2998 26.2782 71.3723 25.7331 71.4126 25.1852C71.4673 24.5726 71.4953 23.8568 71.4953 23.0347V20.5402C70.3803 18.9343 69.8228 17.0151 69.8228 14.7824C69.8228 12.5905 70.3808 10.713 71.4968 9.13373L71.4953 7.43338ZM66.4453 18.7292C65.5744 19.8317 64.3625 20.3764 62.8376 20.3764C61.3127 20.3764 60.1303 19.8317 59.2726 18.7292C58.4853 17.7353 58.0917 16.4561 58.0917 14.8916C58.0917 13.299 58.4873 11.9927 59.2726 10.9994C60.1436 9.88353 61.3393 9.32413 62.8376 9.32413C64.2532 9.32413 65.4238 9.82892 66.3228 10.8488C67.2218 11.8687 67.6706 13.1898 67.6706 14.8635C67.6706 16.4296 67.2617 17.7225 66.4453 18.7292Z" fill="#DE5959"/>
<path d="M104.551 6.23903V6.22575H96.3039V1.1808C96.3039 0.86763 96.1794 0.56729 95.958 0.345847C95.7365 0.124405 95.4361 0 95.1229 0L93.5183 0C93.2028 0 92.9001 0.125338 92.677 0.348441C92.4539 0.571544 92.3285 0.874137 92.3285 1.18965V6.22575H90.6368V9.93493H92.333V24.7259H94.6018C95.0525 24.7247 95.4844 24.5452 95.803 24.2266C96.1217 23.9079 96.3012 23.4761 96.3024 23.0255V9.93788H100.38C100.701 9.32318 101.097 8.75099 101.561 8.23458C102.377 7.33227 103.405 6.64661 104.551 6.23903V6.23903Z" fill="#DE5959"/>
<path d="M124.849 0.000224895C124.51 -0.00381912 124.173 0.0616598 123.86 0.192619C123.548 0.323578 123.265 0.517238 123.03 0.761643C122.787 0.994303 122.594 1.27412 122.463 1.58393C122.332 1.89375 122.266 2.22704 122.268 2.56337C122.261 2.90961 122.324 3.2537 122.456 3.5743C122.587 3.8949 122.782 4.18516 123.03 4.42708C123.269 4.67217 123.555 4.86588 123.871 4.99631C124.188 5.12675 124.527 5.19114 124.869 5.18554C125.208 5.19261 125.545 5.12865 125.858 4.99777C126.171 4.86689 126.453 4.67199 126.686 4.4256C126.932 4.18758 127.127 3.90182 127.258 3.58588C127.389 3.26995 127.454 2.93052 127.45 2.58846C127.456 2.24912 127.392 1.91214 127.261 1.59909C127.13 1.28604 126.935 1.00382 126.688 0.770497C126.451 0.522848 126.165 0.326664 125.848 0.19415C125.532 0.0616354 125.192 -0.00437509 124.849 0.000224895V0.000224895Z" fill="#DE5959"/>
<path d="M125.652 8.17383H124.212C124.036 8.17383 123.861 8.20854 123.699 8.27596C123.536 8.34339 123.388 8.44221 123.263 8.5668C123.139 8.69139 123.04 8.83929 122.973 9.00207C122.905 9.16485 122.87 9.33932 122.87 9.51551V22.1397C123.169 22.4924 123.326 22.9429 123.313 23.4046C123.326 23.8685 123.168 24.321 122.87 24.6769V25.3869H125.429C125.616 25.3869 125.8 25.3501 125.973 25.2786C126.145 25.2072 126.301 25.1024 126.433 24.9704C126.565 24.8384 126.669 24.6817 126.74 24.5092C126.811 24.3368 126.848 24.152 126.847 23.9655V9.36348C126.847 9.20687 126.816 9.05186 126.755 8.90732C126.695 8.76277 126.607 8.63152 126.496 8.52105C126.385 8.41058 126.253 8.32306 126.109 8.26348C125.964 8.20391 125.809 8.17344 125.652 8.17383V8.17383Z" fill="#DE5959"/>
<path d="M144.343 10.6188C142.56 8.86239 140.382 7.98221 137.809 7.97827C135.251 7.97827 133.074 8.84911 131.304 10.5908C129.534 12.3325 128.636 14.4564 128.636 16.9464C128.636 19.5865 129.507 21.7778 131.249 23.5205C132.991 25.2917 135.156 26.1773 137.744 26.1773C140.345 26.1773 142.536 25.3065 144.333 23.5781C146.116 21.8216 147 19.6711 147 17.0837C146.997 14.5243 146.113 12.3871 144.343 10.6188ZM141.538 21.1117C140.599 22.1183 139.361 22.6083 137.808 22.6083C136.255 22.6083 135.018 22.105 134.079 21.0984C133.14 20.0918 132.69 18.7368 132.69 17.0143C132.69 15.4084 133.167 14.1022 134.106 13.0955C135.045 12.0889 136.285 11.5708 137.808 11.5708C139.331 11.5708 140.585 12.0742 141.538 13.0955C142.463 14.0884 142.926 15.4222 142.926 17.097C142.927 18.7708 142.465 20.1036 141.54 21.1073L141.538 21.1117Z" fill="#DE5959"/>
<path d="M117.025 21.7632C114.78 21.7086 109.375 21.6555 109.158 21.6555C107.892 21.6555 106.844 21.2466 106.041 20.4156C105.211 19.5861 104.761 18.457 104.653 17.0415H116.045C116.297 17.0443 116.54 16.9472 116.722 16.7713C116.903 16.5955 117.007 16.3552 117.012 16.1028C117.012 13.2571 116.274 11.0386 114.821 9.44603C113.336 7.82244 111.336 7.02393 108.804 7.02393C106.299 7.02393 104.284 7.85442 102.761 9.51541C101.249 11.203 100.496 13.4076 100.501 16.1293C100.506 18.8511 101.282 21.0513 102.829 22.73C103.9 23.8748 105.297 24.6636 106.83 24.9897C107.5 25.1443 108.185 25.2171 108.872 25.2067C111.049 25.2613 113.005 25.3027 115.093 25.3425H115.106L116.998 25.3838V24.975C116.731 24.6901 116.56 24.3289 116.508 23.9418C116.493 23.8332 116.484 23.7238 116.482 23.6141C116.476 23.113 116.666 22.6293 117.012 22.2665L117.025 21.7632ZM105.483 12.4644C105.719 12.0809 106.024 11.7438 106.382 11.4696C106.724 11.1867 107.116 10.97 107.538 10.8305C107.975 10.6808 108.436 10.6075 108.899 10.6135C111.009 10.6135 112.357 11.6615 112.915 13.784H104.911C105.035 13.3196 105.228 12.8763 105.483 12.4689V12.4644Z" fill="#DE5959"/>
<path d="M18.7237 23.7298L18.3045 23.321C18.2344 23.2519 18.1456 23.205 18.049 23.1862C17.9525 23.1673 17.8525 23.1773 17.7617 23.215C17.6708 23.2526 17.593 23.3162 17.5381 23.3978C17.4831 23.4794 17.4534 23.5754 17.4527 23.6737V29.6235C17.4529 29.689 17.466 29.7538 17.4913 29.8143C17.5165 29.8747 17.5535 29.9296 17.5999 29.9758C17.6464 30.022 17.7015 30.0586 17.7621 30.0835C17.8227 30.1084 17.8876 30.1211 17.9532 30.1209H23.9139C24.0126 30.1213 24.1092 30.0923 24.1914 30.0377C24.2736 29.9831 24.3377 29.9052 24.3755 29.8141C24.4133 29.7229 24.4232 29.6226 24.4038 29.5258C24.3845 29.4291 24.3367 29.3403 24.2668 29.2707C24.2205 29.2245 24.1837 29.1696 24.1587 29.1092C24.1336 29.0488 24.1207 28.9841 24.1207 28.9187C24.1207 28.8533 24.1336 28.7885 24.1587 28.7281C24.1837 28.6677 24.2205 28.6128 24.2668 28.5666L30.5966 22.2199C30.6893 22.1262 30.7414 21.9997 30.7414 21.8678C30.7414 21.736 30.6893 21.6095 30.5966 21.5158L30.0194 20.9417C29.9501 20.8718 29.903 20.783 29.8841 20.6865C29.8651 20.59 29.8751 20.49 29.9128 20.3992C29.9505 20.3083 30.0142 20.2306 30.096 20.1759C30.1777 20.1211 30.2738 20.0918 30.3722 20.0915H36.3138C36.4459 20.0915 36.5725 20.1438 36.6661 20.2371C36.7596 20.3303 36.8123 20.4568 36.8127 20.5889V26.5386C36.8123 26.6373 36.7827 26.7336 36.7277 26.8155C36.6727 26.8974 36.5947 26.9612 36.5035 26.9989C36.4123 27.0366 36.312 27.0465 36.2153 27.0274C36.1185 27.0083 36.0295 26.9609 35.9595 26.8914L35.558 26.4899C35.5125 26.4426 35.458 26.4049 35.3976 26.3792C35.3372 26.3535 35.2723 26.3403 35.2067 26.3403C35.141 26.3403 35.0761 26.3535 35.0157 26.3792C34.9553 26.4049 34.9008 26.4426 34.8553 26.4899L24.1841 37.1555C24.0901 37.2483 23.9634 37.3004 23.8313 37.3004C23.6992 37.3004 23.5724 37.2483 23.4785 37.1555L10.4232 24.0929C10.3301 23.9994 10.2778 23.8728 10.2778 23.7409C10.2778 23.6089 10.3301 23.4824 10.4232 23.3889V23.3889L28.4975 5.31381C28.5903 5.21987 28.6424 5.09312 28.6424 4.96105C28.6424 4.82897 28.5903 4.70222 28.4975 4.60829L24.2476 0.360369C24.1534 0.267437 24.0264 0.215332 23.894 0.215332C23.7617 0.215332 23.6347 0.267437 23.5405 0.360369L0.1476 23.7638C0.054031 23.8573 0.00146484 23.9842 0.00146484 24.1165C0.00146484 24.2488 0.054031 24.3757 0.1476 24.4693L23.5405 47.855C23.6347 47.9479 23.7617 48 23.894 48C24.0264 48 24.1534 47.9479 24.2476 47.855L47.6419 24.4619C47.7347 24.3682 47.7867 24.2417 47.7867 24.1099C47.7867 23.978 47.7347 23.8515 47.6419 23.7579L33.8781 9.99567C33.7844 9.90292 33.6579 9.85089 33.526 9.85089C33.3942 9.85089 33.2677 9.90292 33.174 9.99567L19.4308 23.7313C19.3373 23.8244 19.2107 23.8767 19.0787 23.8767C18.9468 23.8767 18.8202 23.8244 18.7267 23.7313V23.7313L18.7237 23.7298Z" fill="#DE5959"/>
<path d="M146.997 36.6204H118.696" stroke="#DE5959" stroke-width="1.98" stroke-miterlimit="10"/>
<path d="M81.9319 36.7668H53.6293" stroke="#DE5959" stroke-width="1.98" stroke-miterlimit="10"/>
<path d="M98.0354 38.5022V41.8896C98.0393 42.0005 98.0203 42.1111 97.9797 42.2144C97.939 42.3177 97.8775 42.4116 97.799 42.4901C97.7205 42.5686 97.6266 42.6301 97.5233 42.6708C97.42 42.7114 97.3094 42.7304 97.1984 42.7265C96.986 42.7072 96.7877 42.6119 96.6399 42.4582C96.4921 42.3045 96.4048 42.1026 96.3939 41.8896C95.5953 42.5582 94.6933 42.7752 93.5892 42.7176C91.7956 42.6276 90.0316 41.1339 89.7378 39.3612C89.6151 38.6921 89.6556 38.0032 89.856 37.3531C90.0564 36.7029 90.4106 36.1107 90.8888 35.6267C91.3669 35.1427 91.9547 34.7812 92.6024 34.5728C93.2501 34.3645 93.9385 34.3155 94.6092 34.4299C96.5991 34.7354 98.0354 36.4948 98.0354 38.5022ZM96.264 39.4704C96.9017 37.4468 95.1761 35.4661 93.0769 36.1553C92.7016 36.2793 92.3604 36.4893 92.0807 36.7687C91.8011 37.048 91.5907 37.389 91.4664 37.7642C90.7785 39.8645 92.7581 41.59 94.7834 40.9523C95.1303 40.8418 95.4454 40.6494 95.7023 40.3915C95.9593 40.1336 96.1504 39.8177 96.2596 39.4704H96.264Z" fill="#DE5959"/>
<path d="M107.26 37.383C107.421 37.9611 107.456 38.5668 107.363 39.1595C107.27 39.7521 107.051 40.3181 106.721 40.8193C106.392 41.3204 105.958 41.7452 105.451 42.065C104.943 42.3849 104.373 42.5924 103.779 42.6736C103.184 42.7548 102.579 42.7078 102.004 42.5359C101.429 42.3639 100.898 42.0709 100.446 41.6765C99.9938 41.2822 99.6313 40.7956 99.3828 40.2496C99.1343 39.7035 99.0056 39.1106 99.0053 38.5107V30.9964C99.0091 30.7818 99.096 30.577 99.2476 30.4251C99.3993 30.2732 99.6039 30.186 99.8185 30.1818C100.033 30.1776 100.241 30.2567 100.399 30.4026C100.556 30.5484 100.651 30.7496 100.663 30.9639V35.1631C101.194 34.7626 101.811 34.4925 102.465 34.3745C103.119 34.2566 103.792 34.2942 104.429 34.4842C105.111 34.6814 105.731 35.0522 106.227 35.5603C106.723 36.0683 107.079 36.6964 107.26 37.383V37.383ZM105.564 37.5306C105.423 37.1731 105.201 36.8534 104.915 36.5971C104.628 36.3408 104.286 36.155 103.915 36.0546C103.537 35.9468 103.14 35.9277 102.754 35.9988C102.367 36.07 102.003 36.2295 101.688 36.4649C101.374 36.7002 101.118 37.0051 100.941 37.3556C100.764 37.7062 100.67 38.0929 100.667 38.4856V38.5594C100.662 39.032 100.795 39.4959 101.048 39.8947C101.302 40.2935 101.666 40.61 102.096 40.8059C102.562 41.0238 103.082 41.0969 103.589 41.0156C104.097 40.9342 104.568 40.7023 104.942 40.3498C105.315 39.9973 105.575 39.5406 105.686 39.0389C105.797 38.5372 105.754 38.0138 105.564 37.5365V37.5306Z" fill="#DE5959"/>
<path d="M99.0156 35.1387H100.651V41.1799C100.651 41.5945 100.486 41.992 100.193 42.2852C99.8999 42.5783 99.5024 42.743 99.0879 42.743H99.0156V35.1387Z" fill="#DE5959"/>
<path d="M88.6301 40.9649V30.2329H86.9951V41.0682C86.9955 41.5122 87.1721 41.938 87.4862 42.2518C87.8002 42.5657 88.226 42.742 88.6699 42.742H89.6734C89.676 42.742 89.6786 42.7414 89.6811 42.7404C89.6835 42.7393 89.6857 42.7378 89.6875 42.7358C89.6893 42.7339 89.6907 42.7316 89.6915 42.7291C89.6924 42.7266 89.6927 42.724 89.6925 42.7213V41.0328H88.6891C88.6806 41.0329 88.6721 41.0311 88.6643 41.0276C88.6565 41.0241 88.6495 41.0189 88.6439 41.0125C88.6383 41.006 88.6342 40.9984 88.6318 40.9902C88.6294 40.982 88.6288 40.9733 88.6301 40.9649V40.9649Z" fill="#DE5959"/>
<path d="M110.877 42.776C110.521 42.7813 110.167 42.7197 109.834 42.5944C109.498 42.4928 109.176 42.3485 108.876 42.1649C108.816 42.1266 108.757 42.0882 108.701 42.0469C108.645 42.0055 108.571 41.9494 108.515 41.8993C108.28 41.7122 108.071 41.4948 107.893 41.2528L107.87 41.2232C107.788 41.1218 107.737 40.9994 107.723 40.8701C107.708 40.7409 107.731 40.6102 107.788 40.4933C107.845 40.3764 107.934 40.278 108.044 40.2097C108.155 40.1414 108.283 40.1059 108.413 40.1074C108.484 40.1071 108.555 40.1181 108.623 40.1399V40.1399H108.646C108.74 40.1618 108.824 40.2136 108.885 40.2875C109.023 40.4273 109.171 40.5561 109.328 40.6727C109.789 41.0329 110.355 41.2311 110.94 41.2365C111.292 41.2498 111.638 41.1431 111.922 40.9339C112.005 40.867 112.074 40.7841 112.125 40.69C112.176 40.596 112.207 40.4927 112.217 40.3864C112.238 40.2224 112.213 40.0559 112.145 39.9052C112.076 39.7771 111.974 39.67 111.849 39.5952C111.68 39.4852 111.499 39.3942 111.309 39.3236C111.086 39.2366 110.797 39.1391 110.447 39.0358C110.073 38.9329 109.705 38.8057 109.347 38.655C109.077 38.5429 108.828 38.3868 108.609 38.193C108.421 38.0186 108.275 37.8029 108.184 37.5628C108.084 37.2759 108.037 36.9735 108.044 36.6698C108.037 36.3363 108.109 36.0059 108.255 35.7057C108.4 35.4055 108.615 35.144 108.881 34.9429C109.156 34.7333 109.468 34.5762 109.801 34.4794C110.163 34.3728 110.539 34.3196 110.917 34.3215C111.264 34.3182 111.611 34.3544 111.95 34.4292C112.611 34.5812 113.221 34.9021 113.721 35.3606V35.3606C113.773 35.405 113.82 35.4545 113.861 35.5082C113.989 35.6543 114.061 35.841 114.064 36.0351V36.0646C114.056 36.2699 113.973 36.4651 113.831 36.6132C113.688 36.7612 113.496 36.8518 113.292 36.8676H113.233C113.102 36.8678 112.973 36.8369 112.856 36.7775C112.839 36.7694 112.822 36.76 112.806 36.7495C112.745 36.7132 112.689 36.6691 112.639 36.6181V36.6181L112.632 36.6049C112.185 36.1476 111.584 35.8734 110.946 35.8359H110.847C110.611 35.8365 110.379 35.8937 110.17 36.0026C110.049 36.0607 109.949 36.1532 109.882 36.2683C109.815 36.3835 109.783 36.516 109.792 36.6491C109.788 36.7728 109.819 36.8951 109.882 37.0019C109.96 37.1142 110.068 37.2026 110.193 37.2572C110.364 37.3392 110.54 37.4097 110.72 37.4683C110.93 37.5406 111.203 37.6233 111.534 37.7163C111.865 37.8136 112.19 37.9309 112.508 38.0676C112.79 38.1865 113.053 38.3477 113.287 38.5458C113.505 38.7352 113.679 38.9699 113.797 39.2336C113.928 39.5463 113.991 39.8834 113.983 40.2225C113.988 40.5954 113.896 40.9632 113.715 41.2897C113.539 41.6049 113.297 41.8791 113.007 42.0941C112.704 42.3182 112.366 42.4908 112.007 42.6048C111.642 42.7214 111.26 42.7791 110.877 42.776V42.776Z" fill="#DE5959"/>
</svg>
