<svg width="728" height="181" viewBox="0 0 728 181" fill="none" xmlns="http://www.w3.org/2000/svg">
<path d="M73.183 179.941L24.3731 131.048C8.76725 115.416 0 94.2139 0 72.106C0 49.9988 8.76725 28.7968 24.3731 13.1644L37.492 0.0233307L86.3297 48.9437C101.923 64.5786 110.68 85.7764 110.675 107.878C110.67 129.978 101.903 151.172 86.3021 166.799L73.183 179.941Z" fill="url(#paint0_linear)"/>
<path d="M60.0697 48.9479L108.935 0L122.054 13.1411C129.789 20.8825 135.925 30.075 140.112 40.1934C144.299 50.3118 146.454 61.1573 146.454 72.1106C146.454 83.0638 144.299 93.9094 140.112 104.028C135.925 114.146 129.789 123.338 122.054 131.08L73.2158 180L60.0697 166.832C44.4638 151.199 35.6965 129.997 35.6965 107.89C35.6965 85.7821 44.4638 64.5802 60.0697 48.9479Z" fill="url(#paint1_linear)"/>
<path d="M241.48 150.152C230.92 150.152 222.568 147.8 216.424 143.096C210.28 138.296 207.208 131.912 207.208 123.944V119.192C207.208 118.232 207.688 117.752 208.648 117.752H213.112C214.072 117.752 214.552 118.232 214.552 119.192V123.512C214.552 129.464 217 134.264 221.896 137.912C226.792 141.56 233.512 143.384 242.056 143.384C250.024 143.384 256.12 141.752 260.344 138.488C264.568 135.128 266.68 130.52 266.68 124.664C266.68 121.112 265.72 118.04 263.8 115.448C261.976 112.76 259.096 110.264 255.16 107.96C251.32 105.656 245.848 103.016 238.744 100.04C231.256 96.872 225.592 94.232 221.752 92.12C218.008 90.008 214.984 87.368 212.68 84.2C210.376 80.936 209.224 76.76 209.224 71.672C209.224 63.8 211.912 57.752 217.288 53.528C222.76 49.208 230.296 47.048 239.896 47.048C250.36 47.048 258.568 49.448 264.52 54.248C270.472 59.048 273.448 65.48 273.448 73.544V76.856C273.448 77.816 272.968 78.296 272.008 78.296H267.256C266.296 78.296 265.816 77.816 265.816 76.856V73.976C265.816 67.928 263.512 63.08 258.904 59.432C254.296 55.688 247.816 53.816 239.464 53.816C232.168 53.816 226.552 55.352 222.616 58.424C218.68 61.4 216.712 65.72 216.712 71.384C216.712 75.224 217.624 78.344 219.448 80.744C221.272 83.144 223.864 85.256 227.224 87.08C230.68 88.808 235.96 91.112 243.064 93.992C250.168 96.872 255.88 99.656 260.2 102.344C264.616 104.936 268.072 108.008 270.568 111.56C273.064 115.112 274.312 119.384 274.312 124.376C274.312 132.152 271.432 138.392 265.672 143.096C259.912 147.8 251.848 150.152 241.48 150.152ZM322.413 143.384C326.925 143.384 330.765 142.376 333.933 140.36C337.197 138.248 339.741 135.368 341.565 131.72C342.045 130.856 342.669 130.616 343.437 131L347.181 132.872C348.045 133.352 348.285 133.976 347.901 134.744C345.789 139.448 342.429 143.192 337.821 145.976C333.309 148.76 327.981 150.152 321.837 150.152C315.117 150.152 309.405 148.52 304.701 145.256C299.997 141.992 296.781 137.528 295.053 131.864C294.285 129.464 293.757 126.776 293.469 123.8C293.181 120.824 293.037 117.08 293.037 112.568C293.037 107.864 293.085 104.312 293.181 101.912C293.373 99.512 293.709 97.304 294.189 95.288C295.725 89.24 298.845 84.392 303.549 80.744C308.349 77.096 314.205 75.272 321.117 75.272C328.989 75.272 335.277 77.336 339.981 81.464C344.685 85.496 347.613 91.112 348.765 98.312C349.053 100.136 349.245 102.296 349.341 104.792C349.437 107.192 349.485 110.216 349.485 113.864C349.485 114.824 349.005 115.304 348.045 115.304H301.101C300.717 115.304 300.525 115.496 300.525 115.88C300.525 122.024 300.765 126.104 301.245 128.12C302.301 132.824 304.653 136.568 308.301 139.352C312.045 142.04 316.749 143.384 322.413 143.384ZM301.533 97.016C301.053 98.84 300.717 102.584 300.525 108.248C300.525 108.632 300.717 108.824 301.101 108.824H341.277C341.661 108.824 341.853 108.632 341.853 108.248C341.853 103.448 341.613 99.848 341.133 97.448C340.077 92.84 337.773 89.144 334.221 86.36C330.669 83.48 326.301 82.04 321.117 82.04C315.933 82.04 311.613 83.432 308.157 86.216C304.701 88.904 302.493 92.504 301.533 97.016ZM400.212 75.416C407.604 75.416 413.556 77.672 418.068 82.184C422.676 86.696 424.98 92.648 424.98 100.04V147.56C424.98 148.52 424.5 149 423.54 149H418.788C417.828 149 417.348 148.52 417.348 147.56V101.48C417.348 95.816 415.62 91.208 412.164 87.656C408.708 84.008 404.196 82.184 398.628 82.184C392.868 82.184 388.212 83.96 384.66 87.512C381.108 90.968 379.332 95.528 379.332 101.192V147.56C379.332 148.52 378.852 149 377.892 149H373.14C372.18 149 371.7 148.52 371.7 147.56V77.864C371.7 76.904 372.18 76.424 373.14 76.424H377.892C378.852 76.424 379.332 76.904 379.332 77.864V84.92C379.332 85.208 379.38 85.4 379.476 85.496C379.668 85.496 379.812 85.4 379.908 85.208C382.02 82.04 384.804 79.64 388.26 78.008C391.716 76.28 395.7 75.416 400.212 75.416ZM479.284 81.464C479.284 82.424 478.804 82.904 477.844 82.904H460.996C460.612 82.904 460.42 83.096 460.42 83.48V128.984C460.42 133.88 461.524 137.336 463.732 139.352C465.94 141.272 469.492 142.232 474.388 142.232H477.7C478.66 142.232 479.14 142.712 479.14 143.672V147.56C479.14 148.52 478.66 149 477.7 149L473.38 149.144C466.66 149.144 461.572 147.848 458.116 145.256C454.756 142.664 453.028 137.912 452.932 131V83.48C452.932 83.096 452.74 82.904 452.356 82.904H443.716C442.756 82.904 442.276 82.424 442.276 81.464V77.864C442.276 76.904 442.756 76.424 443.716 76.424H452.356C452.74 76.424 452.932 76.232 452.932 75.848V59.432C452.932 58.472 453.412 57.992 454.372 57.992H458.98C459.94 57.992 460.42 58.472 460.42 59.432V75.848C460.42 76.232 460.612 76.424 460.996 76.424H477.844C478.804 76.424 479.284 76.904 479.284 77.864V81.464ZM528.154 75.848C531.418 75.848 534.202 76.424 536.506 77.576C537.274 77.864 537.562 78.488 537.37 79.448L536.074 84.056C535.786 85.016 535.162 85.304 534.202 84.92C532.282 84.152 529.882 83.816 527.002 83.912C521.626 84.008 517.162 86.072 513.61 90.104C510.154 94.04 508.426 98.888 508.426 104.648V147.56C508.426 148.52 507.946 149 506.986 149H502.234C501.274 149 500.794 148.52 500.794 147.56V77.864C500.794 76.904 501.274 76.424 502.234 76.424H506.986C507.946 76.424 508.426 76.904 508.426 77.864V87.656C508.426 87.944 508.474 88.136 508.57 88.232C508.762 88.232 508.906 88.088 509.002 87.8C511.018 84.056 513.61 81.128 516.778 79.016C520.042 76.904 523.834 75.848 528.154 75.848ZM579.194 143.384C583.706 143.384 587.546 142.376 590.714 140.36C593.978 138.248 596.522 135.368 598.346 131.72C598.826 130.856 599.45 130.616 600.218 131L603.962 132.872C604.826 133.352 605.066 133.976 604.682 134.744C602.57 139.448 599.21 143.192 594.602 145.976C590.09 148.76 584.762 150.152 578.618 150.152C571.898 150.152 566.186 148.52 561.482 145.256C556.778 141.992 553.562 137.528 551.834 131.864C551.066 129.464 550.538 126.776 550.25 123.8C549.962 120.824 549.818 117.08 549.818 112.568C549.818 107.864 549.866 104.312 549.962 101.912C550.154 99.512 550.49 97.304 550.97 95.288C552.506 89.24 555.626 84.392 560.33 80.744C565.13 77.096 570.986 75.272 577.898 75.272C585.77 75.272 592.058 77.336 596.762 81.464C601.466 85.496 604.394 91.112 605.546 98.312C605.834 100.136 606.026 102.296 606.122 104.792C606.218 107.192 606.266 110.216 606.266 113.864C606.266 114.824 605.786 115.304 604.826 115.304H557.882C557.498 115.304 557.306 115.496 557.306 115.88C557.306 122.024 557.546 126.104 558.026 128.12C559.082 132.824 561.434 136.568 565.082 139.352C568.826 142.04 573.53 143.384 579.194 143.384ZM558.314 97.016C557.834 98.84 557.498 102.584 557.306 108.248C557.306 108.632 557.498 108.824 557.882 108.824H598.058C598.442 108.824 598.634 108.632 598.634 108.248C598.634 103.448 598.394 99.848 597.914 97.448C596.858 92.84 594.554 89.144 591.002 86.36C587.45 83.48 583.082 82.04 577.898 82.04C572.714 82.04 568.394 83.432 564.938 86.216C561.482 88.904 559.274 92.504 558.314 97.016Z" fill="#F1F2F2"/>
<defs>
<linearGradient id="paint0_linear" x1="110.721" y1="89.9957" x2="-0.0180195" y2="89.9957" gradientUnits="userSpaceOnUse">
<stop stop-color="#F9575E"/>
<stop offset="0.27" stop-color="#F8555B"/>
<stop offset="0.49" stop-color="#F44F51"/>
<stop offset="0.68" stop-color="#EE4540"/>
<stop offset="0.87" stop-color="#E63728"/>
<stop offset="1" stop-color="#DE2A13"/>
</linearGradient>
<linearGradient id="paint1_linear" x1="-332122" y1="278448" x2="-335093" y2="277720" gradientUnits="userSpaceOnUse">
<stop stop-color="#F9575E"/>
<stop offset="0.27" stop-color="#F8555B"/>
<stop offset="0.49" stop-color="#F44F51"/>
<stop offset="0.68" stop-color="#EE4540"/>
<stop offset="0.87" stop-color="#E63728"/>
<stop offset="1" stop-color="#DE2A13"/>
</linearGradient>
</defs>
</svg>
