<svg width="728" height="180" viewBox="0 0 728 180" fill="none" xmlns="http://www.w3.org/2000/svg">
<path d="M73.183 179.941L24.3731 131.048C8.76725 115.416 0 94.2139 0 72.106C0 49.9988 8.76725 28.7968 24.3731 13.1644L37.492 0.0233154L86.3297 48.9437C101.923 64.5786 110.68 85.7764 110.675 107.878C110.67 129.978 101.903 151.172 86.3021 166.799L73.183 179.941Z" fill="url(#paint0_linear)"/>
<path d="M60.0697 48.9479L108.935 0L122.054 13.1411C129.789 20.8825 135.925 30.075 140.112 40.1934C144.299 50.3118 146.454 61.1573 146.454 72.1106C146.454 83.0638 144.299 93.9094 140.112 104.028C135.925 114.146 129.789 123.338 122.054 131.08L73.2158 180L60.0697 166.832C44.4638 151.199 35.6965 129.997 35.6965 107.89C35.6965 85.7821 44.4638 64.5802 60.0697 48.9479Z" fill="url(#paint1_linear)"/>
<path d="M241.48 145.152C230.92 145.152 222.568 142.8 216.424 138.096C210.28 133.296 207.208 126.912 207.208 118.944V114.192C207.208 113.232 207.688 112.752 208.648 112.752H213.112C214.072 112.752 214.552 113.232 214.552 114.192V118.512C214.552 124.464 217 129.264 221.896 132.912C226.792 136.56 233.512 138.384 242.056 138.384C250.024 138.384 256.12 136.752 260.344 133.488C264.568 130.128 266.68 125.52 266.68 119.664C266.68 116.112 265.72 113.04 263.8 110.448C261.976 107.76 259.096 105.264 255.16 102.96C251.32 100.656 245.848 98.016 238.744 95.04C231.256 91.872 225.592 89.232 221.752 87.12C218.008 85.008 214.984 82.368 212.68 79.2C210.376 75.936 209.224 71.76 209.224 66.672C209.224 58.8 211.912 52.752 217.288 48.528C222.76 44.208 230.296 42.048 239.896 42.048C250.36 42.048 258.568 44.448 264.52 49.248C270.472 54.048 273.448 60.48 273.448 68.544V71.856C273.448 72.816 272.968 73.296 272.008 73.296H267.256C266.296 73.296 265.816 72.816 265.816 71.856V68.976C265.816 62.928 263.512 58.08 258.904 54.432C254.296 50.688 247.816 48.816 239.464 48.816C232.168 48.816 226.552 50.352 222.616 53.424C218.68 56.4 216.712 60.72 216.712 66.384C216.712 70.224 217.624 73.344 219.448 75.744C221.272 78.144 223.864 80.256 227.224 82.08C230.68 83.808 235.96 86.112 243.064 88.992C250.168 91.872 255.88 94.656 260.2 97.344C264.616 99.936 268.072 103.008 270.568 106.56C273.064 110.112 274.312 114.384 274.312 119.376C274.312 127.152 271.432 133.392 265.672 138.096C259.912 142.8 251.848 145.152 241.48 145.152ZM322.413 138.384C326.925 138.384 330.765 137.376 333.933 135.36C337.197 133.248 339.741 130.368 341.565 126.72C342.045 125.856 342.669 125.616 343.437 126L347.181 127.872C348.045 128.352 348.285 128.976 347.901 129.744C345.789 134.448 342.429 138.192 337.821 140.976C333.309 143.76 327.981 145.152 321.837 145.152C315.117 145.152 309.405 143.52 304.701 140.256C299.997 136.992 296.781 132.528 295.053 126.864C294.285 124.464 293.757 121.776 293.469 118.8C293.181 115.824 293.037 112.08 293.037 107.568C293.037 102.864 293.085 99.312 293.181 96.912C293.373 94.512 293.709 92.304 294.189 90.288C295.725 84.24 298.845 79.392 303.549 75.744C308.349 72.096 314.205 70.272 321.117 70.272C328.989 70.272 335.277 72.336 339.981 76.464C344.685 80.496 347.613 86.112 348.765 93.312C349.053 95.136 349.245 97.296 349.341 99.792C349.437 102.192 349.485 105.216 349.485 108.864C349.485 109.824 349.005 110.304 348.045 110.304H301.101C300.717 110.304 300.525 110.496 300.525 110.88C300.525 117.024 300.765 121.104 301.245 123.12C302.301 127.824 304.653 131.568 308.301 134.352C312.045 137.04 316.749 138.384 322.413 138.384ZM301.533 92.016C301.053 93.84 300.717 97.584 300.525 103.248C300.525 103.632 300.717 103.824 301.101 103.824H341.277C341.661 103.824 341.853 103.632 341.853 103.248C341.853 98.448 341.613 94.848 341.133 92.448C340.077 87.84 337.773 84.144 334.221 81.36C330.669 78.48 326.301 77.04 321.117 77.04C315.933 77.04 311.613 78.432 308.157 81.216C304.701 83.904 302.493 87.504 301.533 92.016ZM400.212 70.416C407.604 70.416 413.556 72.672 418.068 77.184C422.676 81.696 424.98 87.648 424.98 95.04V142.56C424.98 143.52 424.5 144 423.54 144H418.788C417.828 144 417.348 143.52 417.348 142.56V96.48C417.348 90.816 415.62 86.208 412.164 82.656C408.708 79.008 404.196 77.184 398.628 77.184C392.868 77.184 388.212 78.96 384.66 82.512C381.108 85.968 379.332 90.528 379.332 96.192V142.56C379.332 143.52 378.852 144 377.892 144H373.14C372.18 144 371.7 143.52 371.7 142.56V72.864C371.7 71.904 372.18 71.424 373.14 71.424H377.892C378.852 71.424 379.332 71.904 379.332 72.864V79.92C379.332 80.208 379.38 80.4 379.476 80.496C379.668 80.496 379.812 80.4 379.908 80.208C382.02 77.04 384.804 74.64 388.26 73.008C391.716 71.28 395.7 70.416 400.212 70.416ZM479.284 76.464C479.284 77.424 478.804 77.904 477.844 77.904H460.996C460.612 77.904 460.42 78.096 460.42 78.48V123.984C460.42 128.88 461.524 132.336 463.732 134.352C465.94 136.272 469.492 137.232 474.388 137.232H477.7C478.66 137.232 479.14 137.712 479.14 138.672V142.56C479.14 143.52 478.66 144 477.7 144L473.38 144.144C466.66 144.144 461.572 142.848 458.116 140.256C454.756 137.664 453.028 132.912 452.932 126V78.48C452.932 78.096 452.74 77.904 452.356 77.904H443.716C442.756 77.904 442.276 77.424 442.276 76.464V72.864C442.276 71.904 442.756 71.424 443.716 71.424H452.356C452.74 71.424 452.932 71.232 452.932 70.848V54.432C452.932 53.472 453.412 52.992 454.372 52.992H458.98C459.94 52.992 460.42 53.472 460.42 54.432V70.848C460.42 71.232 460.612 71.424 460.996 71.424H477.844C478.804 71.424 479.284 71.904 479.284 72.864V76.464ZM528.154 70.848C531.418 70.848 534.202 71.424 536.506 72.576C537.274 72.864 537.562 73.488 537.37 74.448L536.074 79.056C535.786 80.016 535.162 80.304 534.202 79.92C532.282 79.152 529.882 78.816 527.002 78.912C521.626 79.008 517.162 81.072 513.61 85.104C510.154 89.04 508.426 93.888 508.426 99.648V142.56C508.426 143.52 507.946 144 506.986 144H502.234C501.274 144 500.794 143.52 500.794 142.56V72.864C500.794 71.904 501.274 71.424 502.234 71.424H506.986C507.946 71.424 508.426 71.904 508.426 72.864V82.656C508.426 82.944 508.474 83.136 508.57 83.232C508.762 83.232 508.906 83.088 509.002 82.8C511.018 79.056 513.61 76.128 516.778 74.016C520.042 71.904 523.834 70.848 528.154 70.848ZM579.194 138.384C583.706 138.384 587.546 137.376 590.714 135.36C593.978 133.248 596.522 130.368 598.346 126.72C598.826 125.856 599.45 125.616 600.218 126L603.962 127.872C604.826 128.352 605.066 128.976 604.682 129.744C602.57 134.448 599.21 138.192 594.602 140.976C590.09 143.76 584.762 145.152 578.618 145.152C571.898 145.152 566.186 143.52 561.482 140.256C556.778 136.992 553.562 132.528 551.834 126.864C551.066 124.464 550.538 121.776 550.25 118.8C549.962 115.824 549.818 112.08 549.818 107.568C549.818 102.864 549.866 99.312 549.962 96.912C550.154 94.512 550.49 92.304 550.97 90.288C552.506 84.24 555.626 79.392 560.33 75.744C565.13 72.096 570.986 70.272 577.898 70.272C585.77 70.272 592.058 72.336 596.762 76.464C601.466 80.496 604.394 86.112 605.546 93.312C605.834 95.136 606.026 97.296 606.122 99.792C606.218 102.192 606.266 105.216 606.266 108.864C606.266 109.824 605.786 110.304 604.826 110.304H557.882C557.498 110.304 557.306 110.496 557.306 110.88C557.306 117.024 557.546 121.104 558.026 123.12C559.082 127.824 561.434 131.568 565.082 134.352C568.826 137.04 573.53 138.384 579.194 138.384ZM558.314 92.016C557.834 93.84 557.498 97.584 557.306 103.248C557.306 103.632 557.498 103.824 557.882 103.824H598.058C598.442 103.824 598.634 103.632 598.634 103.248C598.634 98.448 598.394 94.848 597.914 92.448C596.858 87.84 594.554 84.144 591.002 81.36C587.45 78.48 583.082 77.04 577.898 77.04C572.714 77.04 568.394 78.432 564.938 81.216C561.482 83.904 559.274 87.504 558.314 92.016Z" fill="#F1F2F2"/>
<defs>
<linearGradient id="paint0_linear" x1="110.721" y1="89.9957" x2="-0.0180195" y2="89.9957" gradientUnits="userSpaceOnUse">
<stop stop-color="#F9575E"/>
<stop offset="0.27" stop-color="#F8555B"/>
<stop offset="0.49" stop-color="#F44F51"/>
<stop offset="0.68" stop-color="#EE4540"/>
<stop offset="0.87" stop-color="#E63728"/>
<stop offset="1" stop-color="#DE2A13"/>
</linearGradient>
<linearGradient id="paint1_linear" x1="-332122" y1="278448" x2="-335093" y2="277720" gradientUnits="userSpaceOnUse">
<stop stop-color="#F9575E"/>
<stop offset="0.27" stop-color="#F8555B"/>
<stop offset="0.49" stop-color="#F44F51"/>
<stop offset="0.68" stop-color="#EE4540"/>
<stop offset="0.87" stop-color="#E63728"/>
<stop offset="1" stop-color="#DE2A13"/>
</linearGradient>
</defs>
</svg>
