<svg width="258" height="32" viewBox="0 0 258 32" fill="none" xmlns="http://www.w3.org/2000/svg">
<path d="M75.6147 12.8H56.7601V6.4H80.4961V0H56.7167C55.0652 0 53.4812 0.6696 52.3134 1.8615C51.1458 3.0534 50.4897 4.66997 50.4897 6.35557V12.8444C50.4897 14.53 51.1458 16.1466 52.3134 17.3385C53.4812 18.5304 55.0652 19.2 56.7167 19.2H75.5712V25.6H50.9381V32H75.6147C77.2662 32 78.8501 31.3304 80.0176 30.1385C81.1855 28.9466 81.8416 27.33 81.8416 25.6444V19.1556C81.8416 17.47 81.1855 15.8534 80.0176 14.6615C78.8501 13.4696 77.2662 12.8 75.6147 12.8Z" fill="white"/>
<path d="M112.127 0H93.2024C92.3847 -2.04308e-07 91.5754 0.164423 90.82 0.483873C90.065 0.803327 89.3788 1.27154 88.8008 1.86177C88.223 2.45199 87.7648 3.15266 87.4523 3.92373C87.1398 4.6948 86.9794 5.52113 86.9797 6.35557V25.6444C86.9794 26.4789 87.1398 27.3052 87.4523 28.0763C87.7648 28.8473 88.223 29.548 88.8008 30.1382C89.3788 30.7285 90.065 31.1967 90.82 31.5161C91.5754 31.8356 92.3847 32 93.2024 32H112.127C113.778 32 115.362 31.3304 116.53 30.1385C117.697 28.9466 118.353 27.33 118.353 25.6444V6.35557C118.353 4.66997 117.697 3.0534 116.53 1.8615C115.362 0.6696 113.778 0 112.127 0ZM112.083 25.6H93.272V6.4H112.083V25.6Z" fill="white"/>
<path d="M178.358 1.55631e-06H159.904C158.252 1.55631e-06 156.668 0.669603 155.5 1.8615C154.333 3.0534 153.677 4.66997 153.677 6.35557V32H159.947V21.4844H178.314V32H184.584V6.35557C184.585 5.52077 184.424 4.69407 184.112 3.9227C183.799 3.15134 183.34 2.45048 182.762 1.8602C182.184 1.26991 181.497 0.80179 180.741 0.4826C179.986 0.16341 179.176 -0.000582823 178.358 1.55631e-06ZM178.314 15.0844H159.947V6.4H178.314V15.0844Z" fill="white"/>
<path d="M251.773 1.39873e-05H233.323C232.505 -0.00173933 231.694 0.161358 230.936 0.47997C230.179 0.79858 229.492 1.26645 228.912 1.85679C228.332 2.44713 227.873 3.14836 227.559 3.92033C227.245 4.69227 227.083 5.51983 227.083 6.35557V32H233.354V21.4845H251.73V32H258V6.35557C258 4.66997 257.344 3.05341 256.176 1.86151C255.009 0.669617 253.425 1.39873e-05 251.773 1.39873e-05ZM251.73 15.0845H233.367V6.4H251.73V15.0845Z" fill="white"/>
<path d="M215.244 25.6H212.736L203.748 2.66667C203.441 1.87981 202.909 1.20512 202.222 0.72975C201.535 0.254385 200.724 0.000188311 199.895 0H194.312C193.212 0 192.156 0.446243 191.378 1.24057C190.6 2.03489 190.162 3.11222 190.162 4.23557V32H196.433V6.4H198.941L207.924 29.3333C208.23 30.1202 208.761 30.7951 209.447 31.2705C210.134 31.746 210.944 32.0001 211.773 32H217.356C218.456 32 219.512 31.5538 220.29 30.7594C221.068 29.9651 221.505 28.8878 221.505 27.7644V0H215.235L215.244 25.6Z" fill="white"/>
<path d="M130.18 0H123.91V25.6444C123.91 27.33 124.566 28.9466 125.734 30.1385C126.901 31.3304 128.485 32 130.137 32H148.991V25.6H130.18V0Z" fill="white"/>
<path fill-rule="evenodd" clip-rule="evenodd" d="M5.98322 24.4C6.09455 24.2769 6.22907 24.1781 6.37871 24.1093C6.52835 24.0406 6.69004 24.0034 6.85412 24H34.2172C34.3332 24.0017 34.4458 24.0374 34.5422 24.103C34.6385 24.1686 34.7143 24.2612 34.7603 24.3696C34.8064 24.4781 34.8207 24.5978 34.8015 24.7143C34.7825 24.8309 34.7309 24.9394 34.6529 25.0267L28.8527 31.6C28.7414 31.7231 28.6068 31.8219 28.4572 31.8907C28.3076 31.9594 28.1459 31.9966 27.9818 32H0.601157C0.485383 31.9983 0.372543 31.9626 0.276211 31.897C0.179882 31.8314 0.104164 31.7388 0.0581652 31.6304C0.0121661 31.5219 -0.00215456 31.4022 0.0169244 31.2857C0.0360033 31.1691 0.0876718 31.0606 0.165715 30.9733L5.98322 24.4ZM34.679 18.9511C34.7571 19.0384 34.8087 19.1469 34.8276 19.2634C34.8469 19.38 34.8325 19.4997 34.7864 19.6082C34.7404 19.7166 34.6646 19.8092 34.5683 19.8748C34.472 19.9403 34.3593 19.9761 34.2433 19.9778L6.87153 20C6.70748 19.9966 6.54576 19.9594 6.39612 19.8907C6.24648 19.8219 6.11196 19.7231 6.00066 19.6L0.157005 13.0489C0.0789652 12.9616 0.0272966 12.8531 0.00821443 12.7366C-0.0108645 12.62 0.00345615 12.5003 0.0494552 12.3918C0.0954543 12.2834 0.171172 12.1908 0.267504 12.1252C0.363833 12.0597 0.476673 12.0239 0.59245 12.0222L27.9644 12C28.1285 12.0034 28.2901 12.0406 28.4398 12.1093C28.5894 12.1781 28.7239 12.2769 28.8353 12.4L34.679 18.9511ZM5.98322 0.4C6.09455 0.276939 6.22907 0.178081 6.37871 0.109349C6.52835 0.0406163 6.69004 0.0034238 6.85412 0L34.2349 0.0222222C34.3505 0.0238865 34.4635 0.0596557 34.5598 0.125227C34.6561 0.190798 34.7316 0.283379 34.7776 0.391833C34.8237 0.50029 34.838 0.62 34.8191 0.736563C34.7998 0.85313 34.7482 0.961587 34.6702 1.04889L28.8527 7.6C28.7414 7.72307 28.6068 7.82193 28.4572 7.89067C28.3076 7.9594 28.1459 7.99657 27.9818 8H0.601157C0.485383 7.99833 0.372543 7.96257 0.276211 7.897C0.179882 7.83143 0.104164 7.73883 0.0581652 7.6304C0.0121661 7.52193 -0.00215456 7.40223 0.0169244 7.28567C0.0360033 7.1691 0.0876718 7.06063 0.165715 6.97333L5.98322 0.4Z" fill="url(#paint0_linear_2088_25286)"/>
<defs>
<linearGradient id="paint0_linear_2088_25286" x1="1.05837" y1="32.6978" x2="34.447" y2="-0.0145308" gradientUnits="userSpaceOnUse">
<stop stop-color="#9945FF"/>
<stop offset="0.14" stop-color="#8A53F4"/>
<stop offset="0.42" stop-color="#6377D6"/>
<stop offset="0.79" stop-color="#24B0A7"/>
<stop offset="0.99" stop-color="#00D18C"/>
<stop offset="1" stop-color="#00D18C"/>
</linearGradient>
</defs>
</svg>

