<svg width="41" height="40" viewBox="0 0 41 40" fill="none" xmlns="http://www.w3.org/2000/svg">
<path d="M3 14.5C3 10.2996 3 8.19941 3.81745 6.59507C4.5365 5.18386 5.68386 4.0365 7.09507 3.31745C8.69941 2.5 10.7996 2.5 15 2.5H26C30.2004 2.5 32.3006 2.5 33.9049 3.31745C35.3161 4.0365 36.4635 5.18386 37.1825 6.59507C38 8.19941 38 10.2996 38 14.5V25.5C38 29.7004 38 31.8006 37.1825 33.4049C36.4635 34.8161 35.3161 35.9635 33.9049 36.6825C32.3006 37.5 30.2004 37.5 26 37.5H15C10.7996 37.5 8.69941 37.5 7.09507 36.6825C5.68386 35.9635 4.5365 34.8161 3.81745 33.4049C3 31.8006 3 29.7004 3 25.5V14.5Z" fill="white"/>
<path d="M30.0452 11.675C28.265 10.8925 26.3616 10.3238 24.3717 10C24.1272 10.4151 23.8417 10.9734 23.6449 11.4176C21.5295 11.1187 19.4336 11.1187 17.3571 11.4176C17.1603 10.9734 16.8683 10.4151 16.6218 10C14.6297 10.3238 12.7241 10.8946 10.944 11.6791C7.35345 16.7767 6.38011 21.7477 6.86678 26.648C9.24821 28.3188 11.5561 29.3337 13.825 29.9979C14.3852 29.2736 14.8849 28.5036 15.3153 27.692C14.4956 27.3993 13.7104 27.0382 12.9685 26.6189C13.1653 26.482 13.3578 26.3387 13.5439 26.1914C18.0688 28.1797 22.9852 28.1797 27.4561 26.1914C27.6442 26.3387 27.8367 26.482 28.0314 26.6189C27.2873 27.0402 26.5 27.4014 25.6802 27.6941C26.1107 28.5036 26.6082 29.2757 27.1705 30C29.4416 29.3358 31.7517 28.3209 34.1331 26.648C34.7042 20.9672 33.1576 16.0419 30.0452 11.675ZM15.9318 23.6343C14.5734 23.6343 13.4595 22.4429 13.4595 20.9922C13.4595 19.5413 14.5496 18.3479 15.9318 18.3479C17.3139 18.3479 18.4278 19.5392 18.404 20.9922C18.4062 22.4429 17.3139 23.6343 15.9318 23.6343ZM25.0682 23.6343C23.7098 23.6343 22.5958 22.4429 22.5958 20.9922C22.5958 19.5413 23.686 18.3479 25.0682 18.3479C26.4502 18.3479 27.5642 19.5392 27.5404 20.9922C27.5404 22.4429 26.4502 23.6343 25.0682 23.6343Z" fill="#5865F2"/>
</svg>
