<svg width="20" height="20" viewBox="0 0 20 20" fill="none" xmlns="http://www.w3.org/2000/svg">
<path fill-rule="evenodd" clip-rule="evenodd" d="M9.98693 0.000113275C15.5294 0.000113275 20 4.46482 20 10.0261C20 15.5091 15.4771 20.026 9.9085 19.9999C4.52288 19.9477 0 15.5091 0 10C0 4.46482 4.44445 -0.0259961 9.98693 0.000113275ZM2.37909 15.2219C2.37909 15.3263 2.43137 15.3785 2.48366 15.4569C2.87582 16.0052 3.32026 16.5273 3.84314 16.9712C4.07843 17.1801 4.31373 17.389 4.57516 17.5717C5.30719 18.0417 6.06536 18.4855 6.90196 18.7727C7.5817 19.0077 8.28758 19.1905 8.99346 19.2688C9.54248 19.321 10.1176 19.3472 10.6667 19.2688C10.9804 19.2166 11.3203 19.2166 11.634 19.0861C11.6863 19.1122 11.7124 19.06 11.7386 19.06C12.3922 18.9555 13.0196 18.7466 13.6471 18.4855C15.6863 17.5978 17.2288 16.1618 18.2222 14.1775C19.1111 12.4282 19.3987 10.5744 19.1111 8.64231C18.8497 6.78855 18.0654 5.16977 16.8105 3.81208C15.1373 1.9061 12.9935 0.913942 10.4575 0.757285C9.33333 0.678957 8.20915 0.835613 7.13726 1.20114C5.38562 1.77555 3.94771 2.76771 2.77124 4.20372C1.43791 5.84861 0.784313 7.72849 0.705882 9.81724C0.679738 10.3394 0.732026 10.8355 0.810458 11.3577C0.96732 12.5326 1.35948 13.6553 1.96078 14.6736C2.11765 14.8302 2.22222 15.0391 2.37909 15.2219Z" fill="#7A7B85"/>
<path fill-rule="evenodd" clip-rule="evenodd" d="M11.6338 19.0601C11.3201 19.2167 10.9802 19.2167 10.6665 19.2428C10.1175 19.3212 9.54231 19.295 8.99329 19.2428C8.2874 19.1645 7.58152 18.9817 6.90178 18.7467C6.06518 18.4595 5.30701 18.0157 4.57498 17.5457C4.31355 17.363 4.07825 17.1541 3.84296 16.9452C3.32008 16.5013 2.87564 15.9792 2.48348 15.4309C2.43119 15.3525 2.37891 15.2742 2.37891 15.1959C3.00636 13.786 3.24165 12.2977 3.37237 10.7834C3.42466 10.0784 3.4508 9.37349 3.58152 8.66853C3.71224 7.85914 4.02597 7.12808 4.60113 6.50146C5.124 5.95316 5.7776 5.58763 6.48348 5.32653C7.05865 5.09155 7.65995 4.88267 8.31355 4.85657C8.91485 4.83046 9.49002 4.90878 10.0652 5.03933C10.9279 5.24821 11.7907 5.5093 12.6011 5.90094C13.2547 6.16203 13.9345 6.42313 14.6142 6.632C15.3201 6.84088 16.026 7.07586 16.6273 7.51972C17.3854 8.09413 17.5946 8.82519 17.2547 9.71291C17.0456 10.2612 16.6534 10.679 16.2613 11.0967C15.5554 11.8278 14.7972 12.5066 14.1175 13.2638C13.3332 14.1776 12.6273 15.1175 12.1305 16.2141C11.7122 17.128 11.4769 18.0679 11.6338 19.0601ZM16.6796 10.4701C16.6534 10.4701 16.6273 10.4701 16.6011 10.4962C16.575 10.4962 16.5488 10.5223 16.5488 10.5484C16.5488 10.5484 16.5488 10.5484 16.5488 10.5745C16.575 10.5745 16.6011 10.5484 16.6011 10.5223L16.6796 10.4701C16.7318 10.4701 16.7057 10.4701 16.6796 10.4701C16.6796 10.4701 16.7057 10.444 16.6796 10.4701ZM8.67956 5.92705C7.6861 5.92705 6.87564 6.73644 6.87564 7.70249C6.87564 8.69464 7.6861 9.47792 8.65342 9.50403C9.64688 9.50403 10.4312 8.69464 10.4573 7.70249C10.4573 6.71033 9.67302 5.92705 8.67956 5.92705ZM10.1436 11.41C10.3005 11.645 10.5881 11.8539 10.9279 11.9583C11.6077 12.1933 12.2874 12.1933 12.9671 12.0628C14.1698 11.8278 15.2939 11.41 16.3135 10.7312C16.3658 10.679 16.4704 10.679 16.4966 10.5745C16.4443 10.5484 16.4181 10.5745 16.392 10.6006C16.0521 10.8095 15.6861 10.9662 15.3201 11.1228C14.3789 11.5145 13.3854 11.7755 12.3397 11.8278C11.5815 11.88 10.8234 11.8278 10.1436 11.41ZM15.0848 9.86956C15.2939 9.86956 15.4769 9.6868 15.4769 9.45182C15.4769 9.24294 15.2939 9.06017 15.0586 9.08628C14.8495 9.08628 14.6926 9.26905 14.6926 9.47792C14.6926 9.71291 14.8495 9.86956 15.0848 9.86956Z" fill="#7A7B85"/>
<path fill-rule="evenodd" clip-rule="evenodd" d="M10.0394 5.03919C9.46419 4.93475 8.88903 4.83031 8.28772 4.85642C7.63412 4.88253 7.05896 5.09141 6.45765 5.32639C5.75177 5.58748 5.09818 5.95302 4.5753 6.50131C4.00014 7.10183 3.68641 7.83289 3.55569 8.66839C3.45112 9.37334 3.42497 10.0783 3.34654 10.7832C3.21582 12.2976 2.98053 13.8119 2.35308 15.1957C2.17007 15.0391 2.0655 14.8041 1.96092 14.6213C1.35961 13.6031 0.967458 12.4804 0.810595 11.3054C0.732164 10.7832 0.679876 10.2872 0.706019 9.76498C0.784451 7.67623 1.43805 5.79636 2.77138 4.15147C3.92171 2.71545 5.38576 1.7233 7.13739 1.14889C8.20929 0.80947 9.33347 0.652814 10.4577 0.705033C12.9675 0.861689 15.1112 1.87995 16.8106 3.73372C18.0655 5.11752 18.8237 6.7363 19.1112 8.56395C19.3988 10.496 19.1113 12.3498 18.2224 14.0991C17.2289 16.0835 15.6864 17.5195 13.6472 18.4072C13.0459 18.6683 12.4184 18.8772 11.7387 18.9816C11.6864 18.9816 11.6603 19.0599 11.6341 19.0077C11.4773 18.0155 11.7126 17.0756 12.1047 16.1618C12.6014 15.0652 13.3073 14.1252 14.0916 13.2114C14.7452 12.4542 15.5034 11.7493 16.2354 11.0443C16.6537 10.6266 17.0197 10.2088 17.2289 9.66055C17.5949 8.77283 17.3858 8.04176 16.6014 7.46736C16.0001 7.0235 15.2943 6.78852 14.5884 6.57964C13.9086 6.37077 13.2289 6.10967 12.5753 5.84858C12.4446 5.40472 12.1309 5.11752 11.7126 4.96086C11.1635 4.83031 10.6145 4.88253 10.0394 5.03919ZM18.5884 10.6005H18.6407C18.7452 10.235 18.7452 9.84331 18.7452 9.45167C18.7452 9.00781 18.6929 8.56395 18.6145 8.12009C18.3269 6.68408 17.6733 5.43083 16.6537 4.36034C16.0263 3.70761 15.3204 3.15931 14.6145 2.58491C13.9871 2.06272 13.3073 1.67108 12.523 1.4622C11.7648 1.27944 11.0328 1.175 10.2485 1.30555C10.1962 1.30555 10.1439 1.30555 10.1439 1.35777C10.1439 1.40999 10.1962 1.40999 10.2485 1.40999C11.3988 1.61886 12.4969 1.98439 13.5688 2.40214C14.6145 2.81989 15.5034 3.42041 16.157 4.36034C16.6014 5.01308 17.0197 5.69192 17.3596 6.42298C17.8041 7.41514 18.1439 8.43341 18.3531 9.47778C18.4577 9.89553 18.5361 10.235 18.5884 10.6005Z" fill="#D3D3D6"/>
<path fill-rule="evenodd" clip-rule="evenodd" d="M8.6799 5.927C9.67336 5.927 10.4577 6.73639 10.4577 7.70244C10.4577 8.69459 9.64722 9.47788 8.65375 9.50398C7.66029 9.50398 6.87598 8.69459 6.87598 7.70244C6.87598 6.71028 7.68643 5.927 8.6799 5.927ZM9.9348 7.72855C9.9348 7.02359 9.38578 6.4753 8.6799 6.4753C7.97402 6.4753 7.425 7.02359 7.425 7.72855C7.425 8.40739 7.97401 8.9818 8.65375 8.9818H8.6799C9.35964 8.9818 9.90866 8.4335 9.9348 7.72855Z" fill="#FCFDFB"/>
<path fill-rule="evenodd" clip-rule="evenodd" d="M10.1446 11.4099C10.8244 11.8277 11.5825 11.8799 12.3407 11.8538C13.3864 11.8016 14.3799 11.5666 15.3211 11.1488C15.6871 10.9922 16.0531 10.8355 16.393 10.6267C16.4191 10.6006 16.4453 10.5744 16.4976 10.6006C16.4714 10.6789 16.393 10.705 16.3145 10.7572C15.2949 11.4361 14.1708 11.8538 12.9681 12.0888C12.2884 12.2193 11.5825 12.2193 10.9289 11.9843C10.5891 11.8538 10.2753 11.6449 10.1446 11.4099ZM10.04 5.03926C10.5891 4.8826 11.1642 4.83038 11.7132 5.03926C12.1315 5.19591 12.4453 5.48312 12.576 5.92697C11.7917 5.50922 10.9289 5.24813 10.04 5.03926Z" fill="#4E4F5C"/>
<path fill-rule="evenodd" clip-rule="evenodd" d="M15.085 9.87041C14.8756 9.87041 14.6924 9.68743 14.6924 9.4783C14.6924 9.26917 14.8494 9.08618 15.0588 9.08618C15.2682 9.08618 15.4515 9.24303 15.4776 9.45216C15.4515 9.68743 15.2944 9.87041 15.085 9.87041Z" fill="#FCFDFB"/>
<path fill-rule="evenodd" clip-rule="evenodd" d="M16.6012 10.5223C16.6012 10.5484 16.575 10.5745 16.5488 10.5745C16.5488 10.5223 16.575 10.4961 16.6012 10.5223ZM16.6797 10.47L16.6012 10.5223L16.575 10.4961C16.6274 10.47 16.6535 10.47 16.6797 10.47Z" fill="#A9ACBF"/>
<path fill-rule="evenodd" clip-rule="evenodd" d="M18.5882 10.6006C18.5098 10.2351 18.4314 9.89565 18.3791 9.53012C18.1699 8.45964 17.8039 7.44137 17.3856 6.47533C17.0719 5.74426 16.6536 5.06542 16.183 4.41269C15.5294 3.47275 14.6667 2.87223 13.5948 2.45448C12.4967 2.03673 11.4248 1.64509 10.2745 1.46233C10.2222 1.46233 10.1699 1.46233 10.1699 1.41011C10.1699 1.35789 10.2222 1.35789 10.2745 1.35789C11.0327 1.22734 11.7908 1.30567 12.549 1.51455C13.3333 1.72342 14.0131 2.14117 14.6405 2.63725C15.3464 3.21165 16.0523 3.75995 16.6797 4.41269C17.6993 5.48317 18.3529 6.73642 18.6405 8.17243C18.7189 8.61629 18.7712 9.06015 18.7712 9.50401C18.7712 9.86954 18.7712 10.2612 18.6667 10.6528L18.5882 10.6006Z" fill="#FFFEFC"/>
<path fill-rule="evenodd" clip-rule="evenodd" d="M9.93363 7.72858C9.93363 8.40742 9.38461 8.98183 8.70487 8.98183H8.67873C7.99899 8.98183 7.42383 8.43353 7.42383 7.72858V7.70247C7.42383 6.99751 7.99899 6.44922 8.67873 6.44922C9.35847 6.44922 9.93363 7.02362 9.93363 7.72858Z" fill="#4E4F5C"/>
</svg>
