<svg width="103" height="146" viewBox="0 0 103 146" fill="none" xmlns="http://www.w3.org/2000/svg">
<path d="M49.6 146.2C42.5333 146.2 35.3333 145.4 28 143.8C20.8 142.067 14.5333 139.667 9.2 136.6C5.73333 134.733 3.33333 132.533 2 130C0.8 127.333 0.333334 124.733 0.600001 122.2C1 119.667 2.06667 117.467 3.8 115.6C5.53333 113.6 7.73333 112.333 10.4 111.8C13.2 111.267 16.2667 111.8 19.6 113.4C24.8 115.933 29.7333 117.733 34.4 118.8C39.0667 119.867 43.7333 120.4 48.4 120.4C53.7333 120.4 58.2 119.733 61.8 118.4C65.4 116.933 68.1333 114.867 70 112.2C71.8667 109.533 72.8 106.2 72.8 102.2C72.8 96.6 70.8667 92.4 67 89.6C63.1333 86.8 57.4667 85.4 50 85.4H38.2C33.8 85.4 30.4 84.3333 28 82.2C25.7333 79.9333 24.6 76.8667 24.6 73C24.6 69 25.7333 65.9333 28 63.8C30.4 61.5333 33.8 60.4 38.2 60.4H47C51.5333 60.4 55.3333 59.7333 58.4 58.4C61.6 56.9333 64.0667 54.9333 65.8 52.4C67.6667 49.8667 68.6 46.7333 68.6 43C68.6 37.6667 66.7333 33.6 63 30.8C59.4 28 54.1333 26.6 47.2 26.6C42.9333 26.6 38.7333 27.1333 34.6 28.2C30.4667 29.1333 26 30.8667 21.2 33.4C18.2667 34.8667 15.5333 35.3333 13 34.8C10.4667 34.2667 8.33333 33.0667 6.6 31.2C5 29.3333 3.93333 27.2 3.4 24.8C3 22.2667 3.33333 19.7333 4.4 17.2C5.6 14.6667 7.73333 12.6 10.8 11C16.5333 7.66666 22.7333 5.13333 29.4 3.4C36.2 1.66666 43.0667 0.799996 50 0.799996C60.1333 0.799996 68.8 2.33333 76 5.4C83.2 8.46666 88.7333 12.8667 92.6 18.6C96.4667 24.2 98.4 31 98.4 39C98.4 44.4667 97.3333 49.4667 95.2 54C93.0667 58.5333 90.0667 62.4 86.2 65.6C82.4667 68.6667 77.8667 70.8667 72.4 72.2V69.6C81.8667 71.2 89.2667 75.1333 94.6 81.4C99.9333 87.6667 102.6 95.5333 102.6 105C102.6 113.4 100.467 120.733 96.2 127C91.9333 133.133 85.8 137.867 77.8 141.2C69.9333 144.533 60.5333 146.2 49.6 146.2Z" fill="#747786"/>
</svg>
