<svg width="97" height="143" viewBox="0 0 97 143" fill="none" xmlns="http://www.w3.org/2000/svg">
<path d="M14.4 143C10.1333 143 6.86667 141.867 4.6 139.6C2.33333 137.333 1.2 134.2 1.2 130.2C1.2 126.067 2.33333 122.933 4.6 120.8C6.86667 118.667 10.1333 117.6 14.4 117.6H34.6V27.4H49.2L20 45.2C16.9333 47.0667 14.0667 47.8 11.4 47.4C8.86667 47 6.66667 45.8667 4.8 44C2.93333 42.1333 1.66667 39.9333 1 37.4C0.466667 34.7333 0.733334 32.1333 1.8 29.6C2.86667 26.9333 4.86667 24.6667 7.8 22.8L35.6 5.99999C38.4 4.26666 41.2 2.86666 44 1.79999C46.9333 0.733325 49.8 0.199991 52.6 0.199991C56.6 0.199991 59.7333 1.26666 62 3.4C64.4 5.4 65.6 8.53333 65.6 12.8V117.6H83.8C87.9333 117.6 91.1333 118.667 93.4 120.8C95.6667 122.933 96.8 126.067 96.8 130.2C96.8 134.333 95.6667 137.533 93.4 139.8C91.1333 141.933 87.9333 143 83.8 143H14.4Z" fill="#DFE2F5"/>
</svg>
