<svg width="158" height="48" viewBox="0 0 158 48" fill="none" xmlns="http://www.w3.org/2000/svg">
<path d="M21.1801 39.5282C13.8902 39.5282 7.97949 33.6174 7.97949 26.3275C7.97949 19.2347 19.8995 6.72365 20.392 6.23109L20.9831 5.5415L21.5742 6.23109C22.0667 6.72365 34.2822 19.2347 34.2822 26.3275C34.3807 33.6174 28.47 39.5282 21.1801 39.5282ZM21.0816 8.10282C19.998 9.28496 17.8307 11.6493 15.6634 14.6046C11.8215 19.7272 9.75271 23.7662 9.75271 26.3275C9.75271 32.6323 14.8753 37.7549 21.1801 37.7549C27.4849 37.7549 32.6075 32.6323 32.6075 26.3275C32.6075 23.7662 30.5388 19.7272 26.5983 14.6046C24.431 11.7478 22.1652 9.28496 21.0816 8.10282Z" fill="url(#paint0_linear_8647_100250)"/>
<path d="M21.1803 43.7642C11.5261 43.7642 3.74365 35.9818 3.74365 26.3276C3.74365 16.9689 16.8458 3.86684 17.4368 3.27576C17.8309 2.98023 18.3234 2.98023 18.7175 3.27576C19.013 3.66981 19.013 4.16237 18.7175 4.55642C18.5205 4.65493 5.51687 17.6585 5.51687 26.3276C5.51687 34.9966 12.5112 41.991 21.1803 41.991C29.8493 41.991 36.8437 34.9966 36.8437 26.3276C36.8437 22.7812 34.5779 17.8555 30.2434 12.1418C26.894 7.70881 23.5446 4.3594 23.5446 4.3594C23.1505 4.06386 23.1505 3.47279 23.5446 3.07874C23.8401 2.68469 24.4312 2.68469 24.8252 3.07874C25.4163 3.66981 38.7154 16.9689 38.7154 26.3276C38.6169 35.9818 30.8345 43.7642 21.1803 43.7642Z" fill="url(#paint1_linear_8647_100250)"/>
<path d="M21.1801 48C9.55567 48 0 38.4443 0 26.8199C0 21.9928 2.4628 16.0821 7.19138 9.18625C10.7378 4.16213 14.1857 0.517188 14.3828 0.320164C14.6783 -0.073884 15.2694 -0.073884 15.6634 0.320164C16.0575 0.6157 16.0575 1.20677 15.6634 1.60082C15.6634 1.60082 12.117 5.24577 8.66906 10.2699C4.13751 16.7717 1.77322 22.4854 1.77322 26.9184C1.77322 37.6562 10.5408 46.3253 21.1801 46.3253C31.8194 46.3253 40.587 37.4592 40.587 26.8199C40.587 22.3869 38.2227 16.6732 33.6911 10.1714C30.2432 5.24577 26.6968 1.60082 26.6968 1.50231C26.4012 1.10826 26.4012 0.6157 26.6968 0.221652C27.0908 -0.073884 27.5834 -0.073884 27.9774 0.221652C28.47 0.911236 42.3602 15.294 42.3602 26.8199C42.3602 38.4443 32.903 48 21.1801 48Z" fill="url(#paint2_linear_8647_100250)"/>
<path d="M51.522 31.056L55.758 30.6619C56.0535 32.0411 56.5461 33.1247 57.3342 33.8143C58.1223 34.5039 59.2059 34.7994 60.4866 34.7994C61.8657 34.7994 62.9494 34.5039 63.639 33.9128C64.3285 33.3218 64.7226 32.6322 64.7226 31.8441C64.7226 31.3515 64.5256 30.859 64.23 30.5634C63.9345 30.1694 63.4419 29.8738 62.6538 29.6768C62.1613 29.4798 60.9791 29.1843 59.2059 28.6917C56.8416 28.1006 55.2654 27.411 54.2803 26.5244C52.9997 25.3423 52.3101 23.8646 52.3101 22.1899C52.3101 21.1063 52.6056 20.0226 53.1967 19.136C53.7878 18.2494 54.6744 17.4613 55.8565 16.9688C57.0386 16.4762 58.4178 16.1807 60.0925 16.1807C62.8509 16.1807 64.8211 16.7717 66.2003 17.9539C67.5794 19.136 68.269 20.7122 68.3675 22.6825L64.033 22.8795C63.836 21.7959 63.4419 21.0078 62.8509 20.5152C62.2598 20.0226 61.3732 19.7271 60.0925 19.7271C58.8119 19.7271 57.8267 20.0226 57.1372 20.5152C56.6446 20.8107 56.4476 21.3033 56.4476 21.8944C56.4476 22.3869 56.6446 22.8795 57.1372 23.175C57.7282 23.6676 59.0089 24.1601 61.1762 24.6527C63.3434 25.1453 64.8211 25.6378 65.9047 26.2289C66.8899 26.7215 67.678 27.5096 68.269 28.3962C68.8601 29.2828 69.1556 30.4649 69.1556 31.8441C69.1556 33.1247 68.8601 34.2084 68.1705 35.292C67.4809 36.3756 66.4958 37.1637 65.2151 37.6563C63.9345 38.1489 62.3583 38.4444 60.4866 38.4444C57.7282 38.4444 55.6595 37.8533 54.1818 36.5727C52.7041 35.292 51.8175 33.5188 51.522 31.056Z" fill="white"/>
<path d="M72.7017 38.1487V16.4761H88.6606V20.121H77.0362V24.9481H87.8725V28.5931H77.0362V34.5038H89.0547V38.1487H72.7017Z" fill="white"/>
<path d="M92.897 38.1487V16.4761H102.059C104.324 16.4761 105.999 16.6731 107.083 17.0671C108.166 17.4612 108.954 18.1508 109.546 19.1359C110.137 20.121 110.531 21.3032 110.531 22.5838C110.531 24.16 110.038 25.5392 109.053 26.6228C108.068 27.7064 106.689 28.2975 104.817 28.5931C105.802 29.1841 106.492 29.7752 107.181 30.3663C107.772 31.0559 108.659 32.238 109.644 33.9127L112.304 38.1487H107.083L103.93 33.4201C102.847 31.7454 102.059 30.6618 101.665 30.2678C101.27 29.8737 100.778 29.5782 100.384 29.3812C99.8913 29.1841 99.2017 29.1841 98.2166 29.1841H97.33V38.1487H92.897V38.1487ZM97.2315 25.6377H100.482C102.551 25.6377 103.832 25.5392 104.423 25.3422C104.915 25.1451 105.309 24.8496 105.605 24.4555C105.901 24.0615 105.999 23.4704 105.999 22.8794C105.999 22.1898 105.802 21.5987 105.408 21.1061C105.014 20.6136 104.521 20.4166 103.733 20.2195C103.339 20.2195 102.354 20.121 100.581 20.121H97.133L97.2315 25.6377Z" fill="white"/>
<path d="M114.57 16.4761H118.904V28.199C118.904 30.0707 119.003 31.2529 119.101 31.844C119.298 32.7306 119.692 33.4201 120.481 34.0112C121.17 34.5038 122.155 34.7993 123.337 34.7993C124.618 34.7993 125.505 34.5038 126.096 34.0112C126.687 33.5187 127.081 32.9276 127.278 32.1395C127.376 31.4499 127.475 30.1692 127.475 28.4945V16.4761H131.809V27.805C131.809 30.3663 131.711 32.238 131.415 33.3216C131.218 34.4053 130.726 35.2919 130.135 36.08C129.544 36.7696 128.657 37.3606 127.573 37.8532C126.49 38.3457 125.111 38.5428 123.436 38.5428C121.367 38.5428 119.791 38.3457 118.707 37.8532C117.624 37.3606 116.836 36.7696 116.146 35.9815C115.555 35.1934 115.161 34.4053 114.964 33.6172C114.668 32.3365 114.57 30.5633 114.57 28.1005V16.4761Z" fill="white"/>
<path d="M136.341 38.1487V16.4761H142.843L146.783 31.1544L150.625 16.4761H157.127V38.0502H153.088V21.1061L148.852 38.1487H144.616L140.38 21.1061V38.1487H136.341Z" fill="white"/>
<defs>
<linearGradient id="paint0_linear_8647_100250" x1="21.1314" y1="39.5528" x2="21.1314" y2="5.60298" gradientUnits="userSpaceOnUse">
<stop stop-color="#05AAC5"/>
<stop offset="1" stop-color="#71E0EC"/>
</linearGradient>
<linearGradient id="paint1_linear_8647_100250" x1="21.2295" y1="43.7888" x2="21.2295" y2="2.87768" gradientUnits="userSpaceOnUse">
<stop stop-color="#05AAC5"/>
<stop offset="1" stop-color="#71E0EC"/>
</linearGradient>
<linearGradient id="paint2_linear_8647_100250" x1="21.1801" y1="48.0246" x2="21.1801" y2="0.0730939" gradientUnits="userSpaceOnUse">
<stop stop-color="#05AAC5"/>
<stop offset="1" stop-color="#71E0EC"/>
</linearGradient>
</defs>
</svg>
