<svg width="41" height="40" viewBox="0 0 41 40" fill="none" xmlns="http://www.w3.org/2000/svg">
<path d="M3 14.9444C3 10.5885 3 8.4105 3.84773 6.74674C4.59341 5.28326 5.78326 4.09341 7.24674 3.34773C8.9105 2.5 11.0885 2.5 15.4444 2.5H25.5556C29.9115 2.5 32.0895 2.5 33.7533 3.34773C35.2167 4.09341 36.4066 5.28326 37.1523 6.74674C38 8.4105 38 10.5885 38 14.9444V25.0556C38 29.4115 38 31.5895 37.1523 33.2533C36.4066 34.7167 35.2167 35.9066 33.7533 36.6523C32.0895 37.5 29.9115 37.5 25.5556 37.5H15.4444C11.0885 37.5 8.9105 37.5 7.24674 36.6523C5.78326 35.9066 4.59341 34.7167 3.84773 33.2533C3 31.5895 3 29.4115 3 25.0556V14.9444Z" fill="white"/>
<path d="M28.0637 10.6538L20.5798 16.4943L12.9248 10.6538V10.6554L12.9341 10.6633V18.8416L20.4935 24.8084L28.0637 19.0721V10.6538Z" fill="#EA4335"/>
<path d="M30.0298 9.23298L28.0645 10.6537V19.0719L34.2489 14.3237V11.4634C34.2489 11.4634 33.4982 7.37822 30.0298 9.23298Z" fill="#FBBC05"/>
<path d="M28.0645 19.0719V29.9905H32.8045C32.8045 29.9905 34.1533 29.8516 34.2504 28.3142V14.3237L28.0645 19.0719Z" fill="#34A853"/>
<path d="M12.9344 30V18.8414L12.9248 18.8335L12.9344 30Z" fill="#C5221F"/>
<path d="M12.9252 10.6552L10.9706 9.2424C7.50224 7.38764 6.75 11.4713 6.75 11.4713V14.3316L12.9252 18.8335V10.6552Z" fill="#C5221F"/>
<path d="M12.9248 10.6553V18.8336L12.9344 18.8415V10.6632L12.9248 10.6553Z" fill="#C5221F"/>
<path d="M6.75 14.333V28.3234C6.84557 29.8625 8.19591 29.9998 8.19591 29.9998H12.936L12.9252 18.8334L6.75 14.333Z" fill="#4285F4"/>
</svg>
