<svg width="104" height="144" viewBox="0 0 104 144" fill="none" xmlns="http://www.w3.org/2000/svg">
<path d="M18.6 144C13.6667 144 10 142.867 7.6 140.6C5.33333 138.2 4.2 134.733 4.2 130.2C4.2 127.267 4.93333 124.533 6.4 122C7.86667 119.467 9.86667 116.867 12.4 114.2L50 74.6C55.6 68.6 59.6 63.2667 62 58.6C64.5333 53.9333 65.8 49.2667 65.8 44.6C65.8 38.7333 63.8667 34.2667 60 31.2C56.2667 28.1333 50.8 26.6 43.6 26.6C39.7333 26.6 35.7333 27.2 31.6 28.4C27.6 29.4667 23.4 31.2667 19 33.8C16.0667 35.4 13.3333 36 10.8 35.6C8.4 35.0667 6.33333 33.9333 4.6 32.2C2.86667 30.3333 1.73333 28.1333 1.2 25.6C0.666667 23.0667 0.933334 20.5333 2 18C3.06667 15.4667 5.06667 13.3333 8 11.6C13.8667 7.99999 20.2667 5.33333 27.2 3.6C34.1333 1.73333 41 0.799996 47.8 0.799996C58.3333 0.799996 67.2 2.4 74.4 5.59999C81.6 8.66666 87.0667 13.2 90.8 19.2C94.5333 25.2 96.4 32.5333 96.4 41.2C96.4 46.8 95.5333 52.2667 93.8 57.6C92.0667 62.9333 89.3333 68.3333 85.6 73.8C82 79.1333 77.2 84.8667 71.2 91L36.2 126.6V118.6H90.4C94.6667 118.6 97.8667 119.667 100 121.8C102.267 123.933 103.4 127.067 103.4 131.2C103.4 135.333 102.267 138.533 100 140.8C97.8667 142.933 94.6667 144 90.4 144H18.6Z" fill="#333652"/>
</svg>
